<svg width="25" height="26" viewBox="0 0 25 26" fill="none" xmlns="http://www.w3.org/2000/svg">
<path fill-rule="evenodd" clip-rule="evenodd" d="M0 12.7848C0 6.00239 5.50239 0.5 12.2848 0.5C19.0673 0.5 24.5697 6.00239 24.5697 12.7848C24.5697 19.5673 19.0673 25.0697 12.2848 25.0697C5.50239 25.0697 0 19.5673 0 12.7848ZM12.2848 2.5C6.60696 2.5 2 7.10696 2 12.7848C2 18.4627 6.60696 23.0697 12.2848 23.0697C17.9627 23.0697 22.5697 18.4627 22.5697 12.7848C22.5697 7.10696 17.9627 2.5 12.2848 2.5ZM18.5705 7.31699C18.9934 7.67222 19.0482 8.303 18.693 8.72589L10.7936 18.1299C10.6074 18.3516 10.3344 18.4816 10.045 18.4866C9.75556 18.4915 9.47821 18.3708 9.28459 18.1557L5.89913 14.3941C5.52967 13.9836 5.56295 13.3513 5.97346 12.9818C6.38397 12.6124 7.01626 12.6456 7.38572 13.0562L10.0019 15.963L17.1616 7.43951C17.5168 7.01662 18.1476 6.96177 18.5705 7.31699Z" fill="#31C65B"/>
</svg>
