<svg width="51" height="49" viewBox="0 0 51 49" fill="none" xmlns="http://www.w3.org/2000/svg">
<line x1="21.5977" y1="46.3625" x2="21.5977" y2="37.5514" stroke="#E541ED" stroke-width="3" stroke-linecap="round"/>
<line x1="29.8652" y1="46.1656" x2="29.8652" y2="37.3546" stroke="#E541ED" stroke-width="3" stroke-linecap="round"/>
<path d="M20.6106 14.1576L3.80083 23.8233C2.91635 24.3319 2.37109 25.2744 2.37109 26.2946C2.37109 27.8691 3.64742 29.1454 5.22185 29.1454H45.3711C47.0279 29.1454 48.3711 27.8022 48.3711 26.1454V13.4761C48.3711 10.9452 45.4302 9.55159 43.4714 11.1542L33.7372 19.1185C32.6473 20.0103 31.0839 20.0239 29.9786 19.1513L23.965 14.4037C23.0023 13.6437 21.6739 13.5463 20.6106 14.1576Z" fill="#38D4FF"/>
<rect x="1.87109" y="2.14539" width="47" height="34.7953" rx="4.5" stroke="#5956E9" stroke-width="3"/>
<line x1="12.0977" y1="46.8546" x2="40.2" y2="46.8546" stroke="#5956E9" stroke-width="3" stroke-linecap="round"/>
<path d="M2.37109 29.6454H47.5483" stroke="#5956E9" stroke-width="3"/>
</svg>
