<svg width="51" height="49" viewBox="0 0 51 49" fill="none" xmlns="http://www.w3.org/2000/svg">
<rect x="41.4961" y="42.7808" width="7.82924" height="3.50271" fill="#38D4FF"/>
<path d="M44.9553 4.81821L41.7635 11.8622C41.5873 12.2512 41.4961 12.6733 41.4961 13.1004V45.1591C41.4961 46.2637 42.3915 47.1591 43.4961 47.1591H47.3253C48.4299 47.1591 49.3253 46.2637 49.3253 45.1591V13.1004C49.3253 12.6733 49.2342 12.2512 49.0579 11.8622L45.8661 4.81821C45.6887 4.42669 45.1327 4.42669 44.9553 4.81821Z" stroke="#5956E9" stroke-width="2"/>
<path d="M41.4961 13.0077H45.9H49.3253" stroke="#5956E9" stroke-width="2"/>
<path d="M41.4961 42.7808H49.3253" stroke="#5956E9" stroke-width="2"/>
<path d="M23.3472 9.89512L22.9686 3.60145C22.9331 3.01132 23.4146 2.51938 24.0053 2.54216L25.1772 2.58734C25.4252 2.5969 25.6607 2.69829 25.8381 2.87183L34.5153 11.362C35.035 11.8705 34.8555 12.7461 34.1776 13.0091L32.1307 13.8032C31.9944 13.856 31.8482 13.8784 31.7023 13.8686L26.2556 13.5041C25.9627 13.4845 25.6932 13.3372 25.5185 13.1012L23.5415 10.43C23.4263 10.2743 23.3588 10.0885 23.3472 9.89512Z" fill="#38D4FF"/>
<path d="M1.37109 8.6239V40.3761C1.37109 44.2421 4.5051 47.3761 8.3711 47.3761H28.8752C32.7412 47.3761 35.8752 44.2421 35.8752 40.3761V14.6929C35.8752 12.7054 35.0303 10.8116 33.5514 9.4839L26.791 3.41495C25.5064 2.26176 23.841 1.6239 22.1148 1.6239H8.37109C4.5051 1.6239 1.37109 4.75791 1.37109 8.6239Z" stroke="#5956E9" stroke-width="2.5"/>
<path d="M6.26367 26.5807C6.26367 25.8553 7.05236 25.2672 8.02525 25.2672H27.9898C28.9627 25.2672 29.7514 25.8553 29.7514 26.5807C29.7514 27.3062 28.9627 27.8942 27.9898 27.8942H8.02525C7.05236 27.8942 6.26367 27.3062 6.26367 26.5807Z" fill="#E541ED"/>
<path d="M6.26367 20.451C6.26367 19.7255 7.05236 19.1375 8.02525 19.1375H27.9898C28.9627 19.1375 29.7514 19.7255 29.7514 20.451C29.7514 21.1764 28.9627 21.7645 27.9898 21.7645H8.02525C7.05236 21.7645 6.26367 21.1764 6.26367 20.451Z" fill="#E541ED"/>
<path d="M6.26367 32.7105C6.26367 31.9851 7.05236 31.397 8.02525 31.397H27.9898C28.9627 31.397 29.7514 31.9851 29.7514 32.7105C29.7514 33.4359 28.9627 34.024 27.9898 34.024H8.02525C7.05236 34.024 6.26367 33.4359 6.26367 32.7105Z" fill="#E541ED"/>
<path d="M6.26367 38.8402C6.26367 38.1148 7.06175 37.5267 8.04622 37.5267H21.1183C22.1027 37.5267 22.9008 38.1148 22.9008 38.8402C22.9008 39.5657 22.1027 40.1538 21.1183 40.1538H8.04622C7.06175 40.1538 6.26367 39.5657 6.26367 38.8402Z" fill="#E541ED"/>
<path d="M22.7793 1.80994V9.52697C22.7793 11.7361 24.5702 13.527 26.7793 13.527H35.0428" stroke="#5956E9" stroke-width="2.5" stroke-linecap="round"/>
</svg>
