<svg width="54" height="53" viewBox="0 0 54 53" fill="none" xmlns="http://www.w3.org/2000/svg">
<path d="M25.5537 7.48047C26.1887 5.82834 28.5261 5.82834 29.1611 7.48048C30.119 9.97287 33.2294 10.8063 35.3051 9.12676C36.6811 8.01345 38.7054 9.18218 38.4292 10.9305C38.0126 13.5679 40.2895 15.8448 42.927 15.4282C44.6752 15.152 45.844 17.1763 44.7307 18.5523C43.0511 20.6281 43.8846 23.7384 46.3769 24.6963C48.0291 25.3313 48.0291 27.6687 46.3769 28.3037C43.8846 29.2616 43.0511 32.3719 44.7307 34.4477C45.844 35.8237 44.6752 37.848 42.927 37.5718C40.2895 37.1552 38.0126 39.4321 38.4292 42.0695C38.7054 43.8178 36.6811 44.9865 35.3051 43.8732C33.2294 42.1937 30.119 43.0271 29.1611 45.5195C28.5261 47.1717 26.1887 47.1717 25.5537 45.5195C24.5958 43.0271 21.4855 42.1937 19.4097 43.8732C18.0337 44.9865 16.0094 43.8178 16.2856 42.0695C16.7022 39.4321 14.4253 37.1552 11.7879 37.5718C10.0396 37.848 8.87087 35.8237 9.98418 34.4477C11.6637 32.3719 10.8303 29.2616 8.3379 28.3037C6.68576 27.6687 6.68576 25.3313 8.3379 24.6963C10.8303 23.7384 11.6637 20.6281 9.98418 18.5523C8.87087 17.1763 10.0396 15.152 11.7879 15.4282C14.4253 15.8448 16.7022 13.5679 16.2856 10.9305C16.0094 9.18218 18.0337 8.01345 19.4097 9.12676C21.4855 10.8063 24.5958 9.97287 25.5537 7.48047Z" stroke="#5956E9" stroke-width="2"/>
<circle cx="27.3583" cy="26.5" r="12.5204" stroke="#5956E9" stroke-width="2"/>
</svg>
