<svg width="38" height="45" viewBox="0 0 38 45" fill="none" xmlns="http://www.w3.org/2000/svg">
<path d="M26.2238 44H6.15861C3.54529 44 1.43359 41.8692 1.43359 39.2404V11.5071C1.43359 8.8783 3.54529 6.73932 6.15861 6.73932H26.2319C28.8371 6.73932 30.9569 8.87013 30.9569 11.5071V39.2404C30.9488 41.8692 28.8371 44 26.2238 44Z" stroke="#5956E9" stroke-width="2" stroke-miterlimit="10"/>
<path d="M30.2608 13.7604H27.3886C25.285 13.7604 23.5859 12.0459 23.5859 9.92328V6.93524" stroke="#5956E9" stroke-width="2" stroke-miterlimit="10"/>
<path d="M11.1016 0.999969H29.5C33.4079 0.999969 36.5795 4.20028 36.5795 8.14351V38.0239" stroke="#5956E9" stroke-width="2" stroke-miterlimit="10" stroke-linecap="round"/>
<path d="M8.13281 24.0634H23.6914" stroke="#5956E9" stroke-width="2" stroke-miterlimit="10" stroke-linecap="round"/>
<path d="M8.13281 29.419H23.6914" stroke="#5956E9" stroke-width="2" stroke-miterlimit="10" stroke-linecap="round"/>
<path d="M8.13281 34.8073H23.6914" stroke="#5956E9" stroke-width="2" stroke-miterlimit="10" stroke-linecap="round"/>
</svg>
