<svg width="39" height="36" viewBox="0 0 39 36" fill="none" xmlns="http://www.w3.org/2000/svg">
<path d="M32.1382 34.1352L37.5499 2.96382C37.6839 2.19159 36.9179 1.57232 36.1909 1.86522L1.98107 15.6485C1.19454 15.9654 1.13463 17.056 1.88172 17.4571L11.6172 22.6846C11.8719 22.8213 12.055 23.0617 12.1192 23.3436L14.0645 31.8898C14.229 32.6127 15.0955 32.9114 15.6706 32.4435L21.0053 28.1034C21.3712 27.8058 21.8953 27.8043 22.263 28.0998L30.5263 34.7435C31.1199 35.2207 32.0079 34.8856 32.1382 34.1352Z" stroke="#5956E9" stroke-width="2"/>
<path d="M28.8511 8.54577L10.0522 20.7002C9.8642 20.8218 9.7799 21.0534 9.84583 21.2674L13.2175 32.2085C13.2821 32.4182 13.4759 32.5612 13.6953 32.5612H14.1956C14.4628 32.5612 14.6828 32.3511 14.695 32.0841L15.1128 22.9736C15.1188 22.8434 15.1753 22.7207 15.2704 22.6316L29.4645 9.33049C29.9092 8.91371 29.3629 8.21483 28.8511 8.54577Z" fill="#5956E9"/>
</svg>
