<?xml version="1.0" encoding="utf-8"?><svg viewBox="0 0 76 76" xmlns="http://www.w3.org/2000/svg" xmlns:xlink="http://www.w3.org/1999/xlink"><style>:root>svg{display:none}:root>svg:target{display:block}</style><svg fill="none" viewBox="0 0 16 13" id="check" xmlns="http://www.w3.org/2000/svg"><path fill-rule="evenodd" clip-rule="evenodd" d="M15.137.23a1 1 0 0 1 .133 1.407l-9.1 11a1 1 0 0 1-1.518.026l-3.9-4.4a1 1 0 1 1 1.496-1.326l3.126 3.526 8.355-10.1A1 1 0 0 1 15.137.23Z" fill="#31C65B"/></svg><svg fill="none" viewBox="0 0 25 26" id="check-circle" xmlns="http://www.w3.org/2000/svg"><path fill-rule="evenodd" clip-rule="evenodd" d="M0 12.785C0 6.002 5.502.5 12.285.5 19.067.5 24.57 6.002 24.57 12.785c0 6.782-5.503 12.285-12.285 12.285C5.502 25.07 0 19.567 0 12.785ZM12.285 2.5C6.607 2.5 2 7.107 2 12.785S6.607 23.07 12.285 23.07 22.57 18.463 22.57 12.785 17.963 2.5 12.285 2.5Zm6.285 4.817a1 1 0 0 1 .123 1.409l-7.9 9.404a1 1 0 0 1-1.508.026l-3.386-3.762a1 1 0 0 1 1.487-1.338l2.616 2.907 7.16-8.523a1 1 0 0 1 1.409-.123Z" fill="#31C65B"/></svg><svg fill="none" viewBox="0 0 22 22" id="circle-with-dot" xmlns="http://www.w3.org/2000/svg"><circle cx="11" cy="11" r="11" fill="#fff"/><circle cx="11" cy="11" r="4" fill="#5956E9"/></svg><svg fill="none" viewBox="0 0 56 59" id="fetures-icon-1" xmlns="http://www.w3.org/2000/svg"><rect x="1.5" y="1.5" width="49.057" height="52.244" rx="11.5" stroke="#5956E9" stroke-width="3"/><path d="M12 1v52" stroke="#5956E9" stroke-width="3"/><circle cx="44" cy="47" r="12" fill="#38D4FF"/><rect x="17" y="17" width="25" height="3" rx="1.5" fill="#E541ED"/><rect x="17" y="11" width="25" height="3" rx="1.5" fill="#E541ED"/><rect x="17" y="23" width="25" height="3" rx="1.5" fill="#E541ED"/><rect x="42.496" y="49.932" width="10.624" height="2.125" rx="1.062" transform="rotate(-90 42.496 49.932)" fill="#5956E9"/><rect x="17" y="29" width="18" height="3" rx="1.5" fill="#E541ED"/><rect x="42.496" y="47.807" width="7.437" height="2.125" rx="1.062" fill="#5956E9"/></svg><svg fill="none" viewBox="0 0 55 59" id="fetures-icon-2" xmlns="http://www.w3.org/2000/svg"><circle cx="27.711" cy="30.396" r="8.652" stroke="#5956E9" stroke-width="3"/><path stroke="#5956E9" stroke-width="3" d="m8.172 10.115 14 14M23.659 38.009l-3.29 7.319M34.017 26.724l7.094-5.219"/><circle cx="9" cy="9.713" r="9" fill="#38D4FF"/><circle cx="46.787" cy="17.5" r="6.287" stroke="#E541ED" stroke-width="3"/><circle cx="17.787" cy="50.5" r="6.287" stroke="#E541ED" stroke-width="3"/></svg><svg fill="none" viewBox="0 0 50 55" id="fetures-icon-3" xmlns="http://www.w3.org/2000/svg"><path stroke="#5956E9" stroke-width="3" d="m23.795 45.628 5 7M9.538 29.199l8.163 9.312M8.161 22.245l9.451-7.896"/><path stroke="#5956E9" stroke-width="3" stroke-linecap="round" d="M10.074 53h29"/><path stroke="#5956E9" stroke-width="3" d="m25.642 11.688 7.837.356"/><circle cx="7.609" cy="24.578" r="7.035" fill="#38D4FF"/><circle cx="21.541" cy="11.466" r="4.466" stroke="#E541ED" stroke-width="3"/><circle cx="20.541" cy="41.467" r="4.466" stroke="#E541ED" stroke-width="3"/><path d="M48.37 7.748 38.93 2.5l-5.519 9.138 5.519 9.385 9.442-5.063" stroke="#5956E9" stroke-width="3" stroke-linecap="round"/></svg><svg fill="none" viewBox="0 0 51 49" id="fetures-icon-4" xmlns="http://www.w3.org/2000/svg"><path stroke="#E541ED" stroke-width="3" stroke-linecap="round" d="M21.598 46.362v-8.811M29.865 46.166v-8.811"/><path d="M20.61 14.158 3.8 23.823a2.85 2.85 0 0 0 1.422 5.322h40.15a3 3 0 0 0 3-3V13.476c0-2.53-2.942-3.924-4.9-2.322l-9.735 7.965a3 3 0 0 1-3.758.032l-6.014-4.747a3 3 0 0 0-3.354-.246Z" fill="#38D4FF"/><rect x="1.871" y="2.145" width="47" height="34.795" rx="4.5" stroke="#5956E9" stroke-width="3"/><path stroke="#5956E9" stroke-width="3" stroke-linecap="round" d="M12.098 46.855H40.2"/><path d="M2.371 29.645h45.177" stroke="#5956E9" stroke-width="3"/></svg><svg fill="none" viewBox="0 0 55 53" id="fetures-icon-5" xmlns="http://www.w3.org/2000/svg"><rect x="7.871" y="5.5" width="45" height="46" rx="10.5" stroke="#5956E9" stroke-width="3"/><rect x="17.371" y="33" width="3" height="11" rx="1.5" fill="#E541ED"/><rect x="24.371" y="28" width="3" height="16" rx="1.5" fill="#E541ED"/><rect x="32.371" y="22" width="3" height="22" rx="1.5" fill="#E541ED"/><rect x="40.371" y="16" width="3" height="28" rx="1.5" fill="#E541ED"/><circle cx="11.371" cy="11" r="11" fill="#38D4FF"/><path fill-rule="evenodd" clip-rule="evenodd" d="m4.65 13.367 6.049-6.087a.947.947 0 0 1 1.344 0l6.05 6.087a.96.96 0 0 1 0 1.353.946.946 0 0 1-1.345 0l-5.377-5.41-5.377 5.41a.946.946 0 0 1-1.344 0 .96.96 0 0 1 0-1.353Z" fill="#5956E9"/></svg><svg fill="none" viewBox="0 0 51 49" id="fetures-icon-6" xmlns="http://www.w3.org/2000/svg"><path fill="#38D4FF" d="M41.496 42.781h7.829v3.503h-7.829z"/><path d="m44.955 4.818-3.191 7.044a3 3 0 0 0-.268 1.238v32.06a2 2 0 0 0 2 2h3.83a2 2 0 0 0 2-2V13.1a3 3 0 0 0-.268-1.238l-3.192-7.044a.5.5 0 0 0-.91 0ZM41.496 13.008h7.829M41.496 42.78h7.83" stroke="#5956E9" stroke-width="2"/><path d="m23.347 9.895-.378-6.294a1 1 0 0 1 1.036-1.059l1.172.045a1 1 0 0 1 .661.285l8.677 8.49a1 1 0 0 1-.337 1.647l-2.047.794a1 1 0 0 1-.429.066l-5.446-.365a1 1 0 0 1-.738-.403l-1.977-2.671a1 1 0 0 1-.194-.535Z" fill="#38D4FF"/><path d="M1.371 8.624v31.752a7 7 0 0 0 7 7h20.504a7 7 0 0 0 7-7V14.693a7 7 0 0 0-2.324-5.21l-6.76-6.068a7 7 0 0 0-4.676-1.791H8.37a7 7 0 0 0-7 7Z" stroke="#5956E9" stroke-width="2.5"/><path d="M6.264 26.58c0-.725.788-1.313 1.761-1.313H27.99c.973 0 1.761.588 1.761 1.314 0 .725-.788 1.313-1.761 1.313H8.025c-.973 0-1.761-.588-1.761-1.313ZM6.264 20.451c0-.726.788-1.314 1.761-1.314H27.99c.973 0 1.761.588 1.761 1.314 0 .725-.788 1.314-1.761 1.314H8.025c-.973 0-1.761-.589-1.761-1.314ZM6.264 32.71c0-.725.788-1.313 1.761-1.313H27.99c.973 0 1.761.588 1.761 1.314 0 .725-.788 1.313-1.761 1.313H8.025c-.973 0-1.761-.588-1.761-1.313ZM6.264 38.84c0-.725.798-1.313 1.782-1.313h13.072c.985 0 1.783.588 1.783 1.313 0 .726-.798 1.314-1.783 1.314H8.046c-.984 0-1.782-.588-1.782-1.314Z" fill="#E541ED"/><path d="M22.78 1.81v7.717a4 4 0 0 0 4 4h8.263" stroke="#5956E9" stroke-width="2.5" stroke-linecap="round"/></svg><svg fill="none" viewBox="0 0 39 36" id="line-icon-1" xmlns="http://www.w3.org/2000/svg"><path d="M32.138 34.135 37.55 2.964a1 1 0 0 0-1.36-1.099L1.982 15.65a1 1 0 0 0-.1 1.808l9.736 5.228a1 1 0 0 1 .502.659l1.946 8.546a1 1 0 0 0 1.606.553l5.334-4.34a1 1 0 0 1 1.258-.003l8.263 6.643a1 1 0 0 0 1.612-.608Z" stroke="#5956E9" stroke-width="2"/><path d="M28.851 8.546 10.052 20.7a.5.5 0 0 0-.206.567l3.371 10.942a.5.5 0 0 0 .478.352h.5a.5.5 0 0 0 .5-.477l.418-9.11a.5.5 0 0 1 .157-.342L29.465 9.33c.444-.416-.102-1.115-.614-.784Z" fill="#5956E9"/></svg><svg fill="none" viewBox="0 0 54 53" id="line-icon-2" xmlns="http://www.w3.org/2000/svg"><path d="M25.554 7.48c.635-1.652 2.972-1.652 3.607 0 .958 2.493 4.068 3.326 6.144 1.647 1.376-1.114 3.4.055 3.124 1.803-.416 2.638 1.86 4.915 4.498 4.498 1.748-.276 2.917 1.748 1.804 3.124-1.68 2.076-.846 5.186 1.646 6.144 1.652.635 1.652 2.973 0 3.608-2.492.958-3.326 4.068-1.646 6.144 1.113 1.376-.056 3.4-1.804 3.124-2.638-.417-4.914 1.86-4.498 4.497.276 1.749-1.748 2.917-3.124 1.804-2.076-1.68-5.186-.846-6.144 1.647-.635 1.652-2.972 1.652-3.607 0-.958-2.493-4.069-3.326-6.144-1.647-1.376 1.114-3.4-.055-3.124-1.803.416-2.638-1.86-4.915-4.498-4.498-1.748.276-2.917-1.748-1.804-3.124 1.68-2.076.846-5.186-1.646-6.144-1.652-.635-1.652-2.973 0-3.608 2.492-.958 3.326-4.068 1.646-6.144-1.113-1.376.056-3.4 1.804-3.124 2.637.417 4.914-1.86 4.498-4.498-.277-1.748 1.748-2.917 3.124-1.803 2.075 1.68 5.186.846 6.144-1.647Z" stroke="#5956E9" stroke-width="2"/><circle cx="27.358" cy="26.5" r="12.52" stroke="#5956E9" stroke-width="2"/></svg><svg fill="none" viewBox="0 0 46 43" id="line-icon-3" xmlns="http://www.w3.org/2000/svg"><path d="M38.554 19.8h1.719c2.26 0 4.083 1.803 4.083 4.02v11.448c0 3.31-2.724 5.993-6.087 5.993-3.363 0-6.087-2.683-6.087-5.993V7.459c0-3.163-2.605-5.72-5.81-5.72H7.667c-3.205 0-5.81 2.564-5.81 5.72v28.075c0 3.163 2.605 5.72 5.81 5.72h31.105M10.527 11.036h13.399M10.527 20.532h13.399M10.527 29.34h6.508" stroke="#5956E9" stroke-width="2" stroke-miterlimit="10" stroke-linecap="round" stroke-linejoin="round"/></svg><svg fill="none" viewBox="0 0 49 35" id="line-icon-4" xmlns="http://www.w3.org/2000/svg"><path d="M17.78 9.966h19.07M17.78 15.734h8.303M1.355 1.986h6.29M3.143 7.11h3.6M5.164 12.233h1.579M34.78 27.27h12.463M41.012 33.204v-11.87M32.531 32.783H14.964c-2.866 0-5.196-2.594-5.196-5.8V7.595c0-3.206 2.322-5.8 5.195-5.8h27.534c2.865 0 5.196 2.594 5.196 5.8V18.94" stroke="#5956E9" stroke-width="2" stroke-miterlimit="10" stroke-linecap="round"/></svg><svg fill="none" viewBox="0 0 51 51" id="line-icon-5" xmlns="http://www.w3.org/2000/svg"><path d="M46.08 30.109c2.545-11.26-4.52-22.452-15.78-24.997C19.04 2.566 7.848 9.63 5.302 20.89c-2.545 11.26 4.52 22.452 15.78 24.997 11.26 2.546 22.452-4.519 24.997-15.779Z" stroke="#5956E9" stroke-width="2" stroke-miterlimit="10"/><circle cx="25.691" cy="21.884" r="6.228" stroke="#5956E9" stroke-width="2"/><path d="M15.576 36.754s9.46-7.944 20.239 0" stroke="#5956E9" stroke-width="2" stroke-miterlimit="10" stroke-linecap="round"/></svg><svg fill="none" viewBox="0 0 36 41" id="line-icon-6" xmlns="http://www.w3.org/2000/svg"><path d="M5.197 1.95h25.561a3.667 3.667 0 0 1 3.676 3.657l-.035 33.513-13.656-6.915-12.785 6.758.017-.052V5.024A3.148 3.148 0 0 0 4.831 1.88a3.148 3.148 0 0 0-3.144 3.144v8.605H3.63" stroke="#5956E9" stroke-width="2" stroke-miterlimit="10" stroke-linecap="round" stroke-linejoin="round"/><path d="M14.916 8.7h14.457M21.1 14.308h8.273M25.732 19.925h3.64" stroke="#5956E9" stroke-width="2" stroke-miterlimit="10" stroke-linecap="round"/></svg><svg fill="none" viewBox="0 0 38 45" id="line-icon-73" xmlns="http://www.w3.org/2000/svg"><path d="M26.224 44H6.159c-2.614 0-4.725-2.13-4.725-4.76V11.507c0-2.629 2.111-4.768 4.725-4.768h20.073c2.605 0 4.725 2.131 4.725 4.768V39.24c-.008 2.63-2.12 4.76-4.733 4.76Z" stroke="#5956E9" stroke-width="2" stroke-miterlimit="10"/><path d="M30.26 13.76H27.39c-2.104 0-3.803-1.714-3.803-3.837V6.935" stroke="#5956E9" stroke-width="2" stroke-miterlimit="10"/><path d="M11.102 1H29.5c3.908 0 7.08 3.2 7.08 7.144v29.88M8.133 24.063H23.69M8.133 29.419H23.69M8.133 34.807H23.69" stroke="#5956E9" stroke-width="2" stroke-miterlimit="10" stroke-linecap="round"/></svg><svg fill="none" viewBox="0 0 23 35" id="play-icon" xmlns="http://www.w3.org/2000/svg"><path d="m4.316 34.375 17.771-14.93c.287-.24.516-.54.674-.875a2.522 2.522 0 0 0 0-2.142 2.57 2.57 0 0 0-.674-.876L4.317.622C2.62-.803 0 .378 0 2.568v29.865c0 2.19 2.62 3.371 4.316 1.942Z" fill="#5956E9"/></svg><svg fill="none" viewBox="0 0 76 76" id="protected" xmlns="http://www.w3.org/2000/svg"><circle cx="38" cy="38" r="38" fill="#7876FC"/><path d="M46 30 34.92 43 30 38.105" stroke="#433FED" stroke-width="4" stroke-linecap="round" stroke-linejoin="round"/><path d="M57.913 24.19C49.316 22.646 45.761 21.504 38 18c-7.76 3.505-11.315 4.647-19.913 6.19C16.529 48.877 36.517 57.402 38 58c1.483-.597 21.471-9.122 19.913-33.81Z" stroke="#433FED" stroke-width="4" stroke-linecap="round" stroke-linejoin="round"/></svg><svg fill="none" viewBox="0 0 24 18" id="quotation-marks" xmlns="http://www.w3.org/2000/svg"><path d="M6.22 17.12c-.96 0-1.8-.18-2.52-.54-.72-.4-1.3-.92-1.74-1.56-.4-.64-.72-1.4-.96-2.28-.24-.88-.36-1.8-.36-2.76 0-1.96.5-3.8 1.5-5.52C3.18 2.74 4.78 1.38 6.94.38l.54 1.08c-1.12.52-2.12 1.28-3 2.28-.84.96-1.34 1.98-1.5 3.06a4.68 4.68 0 0 0-.06 2.46c.88-.96 2.06-1.44 3.54-1.44 1.36 0 2.48.42 3.36 1.26.88.8 1.32 1.92 1.32 3.36 0 1.4-.46 2.54-1.38 3.42-.92.84-2.1 1.26-3.54 1.26Zm12.36 0c-.96 0-1.8-.18-2.52-.54-.72-.4-1.3-.92-1.74-1.56-.4-.64-.72-1.4-.96-2.28-.24-.88-.36-1.8-.36-2.76 0-1.96.5-3.8 1.5-5.52 1.04-1.72 2.64-3.08 4.8-4.08l.54 1.08c-1.12.52-2.12 1.28-3 2.28-.84.96-1.34 1.98-1.5 3.06a4.68 4.68 0 0 0-.06 2.46c.88-.96 2.06-1.44 3.54-1.44 1.36 0 2.48.42 3.36 1.26.88.8 1.32 1.92 1.32 3.36 0 1.4-.46 2.54-1.38 3.42-.92.84-2.1 1.26-3.54 1.26Z" fill="#fff"/></svg><svg fill="none" viewBox="0 0 24 23" id="star" xmlns="http://www.w3.org/2000/svg"><path d="M11.049 1.3c.3-.922 1.603-.922 1.902 0l1.968 6.055a1 1 0 0 0 .95.691h6.368c.969 0 1.372 1.24.588 1.81l-5.151 3.742a1 1 0 0 0-.364 1.118l1.968 6.056c.3.921-.755 1.687-1.539 1.118l-5.151-3.743a1 1 0 0 0-1.176 0L6.261 21.89c-.784.57-1.838-.197-1.539-1.118l1.968-6.056a1 1 0 0 0-.364-1.118l-5.15-3.743c-.785-.57-.382-1.809.587-1.809H8.13a1 1 0 0 0 .951-.69L11.05 1.3Z" fill="#FFA722"/></svg><svg fill="none" viewBox="0 0 74 74" id="values-icon-1" xmlns="http://www.w3.org/2000/svg"><rect width="64" height="64" rx="15" transform="matrix(1 0 0 -1 0 64)" fill="url(#ua)"/><g filter="url(#ub)"><rect width="64" height="64" rx="15" transform="matrix(1 0 0 -1 10 74)" fill="#EEE" fill-opacity=".61"/><rect x=".5" y="-.5" width="63" height="63" rx="14.5" transform="matrix(1 0 0 -1 10 73)" stroke="#fff"/></g><path d="M35.473 48.179a12.036 12.036 0 1 1 12.957.094" stroke="#5956E9" stroke-width="2" stroke-linecap="round" stroke-linejoin="round"/><path stroke="#5956E9" stroke-width="2" stroke-linecap="round" d="M37 52h10"/><path d="M37.61 54.965c-.553 0-1.011.452-.891.991A4.879 4.879 0 0 0 38.22 58.5c1.032.938 2.43 1.465 3.89 1.465 1.458 0 2.857-.527 3.889-1.465a4.88 4.88 0 0 0 1.501-2.544c.12-.539-.338-.992-.89-.992h-9Z" fill="#5956E9"/><defs><linearGradient id="ua" x1="32" y1="0" x2="32" y2="64" gradientUnits="userSpaceOnUse"><stop stop-color="#807DFF"/><stop offset="1" stop-color="#BAB9FF" stop-opacity=".34"/></linearGradient><filter id="ub" x="2" y="2" width="80" height="80" filterUnits="userSpaceOnUse" color-interpolation-filters="sRGB"><feFlood flood-opacity="0" result="BackgroundImageFix"/><feGaussianBlur in="BackgroundImageFix" stdDeviation="4"/><feComposite in2="SourceAlpha" operator="in" result="effect1_backgroundBlur_1_814"/><feBlend in="SourceGraphic" in2="effect1_backgroundBlur_1_814" result="shape"/></filter></defs></svg><svg fill="none" viewBox="0 0 74 74" id="values-icon-2" xmlns="http://www.w3.org/2000/svg"><rect width="64" height="64" rx="15" transform="matrix(1 0 0 -1 0 64)" fill="url(#va)"/><g filter="url(#vb)"><rect width="64" height="64" rx="15" transform="matrix(1 0 0 -1 10 74)" fill="#EEE" fill-opacity=".61"/><rect x=".5" y="-.5" width="63" height="63" rx="14.5" transform="matrix(1 0 0 -1 10 73)" stroke="#fff"/></g><path d="m25 53 8.356-10.555a2 2 0 0 1 2.677-.423l8.112 5.408a1 1 0 0 0 1.402-.3L56 30.5" stroke="#33B6DA" stroke-width="2" stroke-linecap="round"/><path d="m45.5 31 10.632-.924a1 1 0 0 1 1.061.774L59.5 41" stroke="#33B6DA" stroke-width="2" stroke-linecap="round"/><defs><linearGradient id="va" x1="32" y1="0" x2="32" y2="64" gradientUnits="userSpaceOnUse"><stop stop-color="#38D4FF"/><stop offset="1" stop-color="#D9F7FF"/></linearGradient><filter id="vb" x="2" y="2" width="80" height="80" filterUnits="userSpaceOnUse" color-interpolation-filters="sRGB"><feFlood flood-opacity="0" result="BackgroundImageFix"/><feGaussianBlur in="BackgroundImageFix" stdDeviation="4"/><feComposite in2="SourceAlpha" operator="in" result="effect1_backgroundBlur_1_822"/><feBlend in="SourceGraphic" in2="effect1_backgroundBlur_1_822" result="shape"/></filter></defs></svg><svg fill="none" viewBox="0 0 74 74" id="values-icon-3" xmlns="http://www.w3.org/2000/svg"><rect width="64" height="64" rx="15" transform="matrix(1 0 0 -1 0 64)" fill="url(#wa)"/><g filter="url(#wb)"><rect width="64" height="64" rx="15" transform="matrix(1 0 0 -1 10 74)" fill="#EEE" fill-opacity=".61"/><rect x=".5" y="-.5" width="63" height="63" rx="14.5" transform="matrix(1 0 0 -1 10 73)" stroke="#fff"/></g><path d="M58.103 40.33c0 1.577-3.096 2.64-3.557 4.062-.478 1.473 1.385 4.152.493 5.378-.899 1.238-4.03.29-5.268 1.19-1.226.892-1.285 4.169-2.758 4.647-1.42.461-3.386-2.138-4.961-2.138-1.576 0-3.542 2.6-4.962 2.138-1.473-.478-1.532-3.755-2.758-4.646-1.237-.9-4.369.047-5.268-1.19-.891-1.227.97-3.906.493-5.38-.461-1.42-3.557-2.488-3.557-4.06 0-1.573 3.096-2.64 3.557-4.061.478-1.473-1.384-4.152-.493-5.379.9-1.238 4.03-.29 5.268-1.19 1.226-.892 1.285-4.168 2.758-4.646 1.42-.462 3.386 2.138 4.962 2.138 1.575 0 3.541-2.6 4.962-2.138 1.472.478 1.531 3.754 2.757 4.646 1.237.9 4.369-.048 5.268 1.19.892 1.227-.97 3.906-.493 5.379.458 1.417 3.557 2.484 3.557 4.06Z" stroke="#E749EE" stroke-width="2" stroke-miterlimit="10"/><path d="M47 40a5 5 0 1 1-10 0 5 5 0 0 1 10 0Z" stroke="#E749EE" stroke-width="2"/><defs><linearGradient id="wa" x1="32" y1="0" x2="32" y2="64" gradientUnits="userSpaceOnUse"><stop stop-color="#E541ED"/><stop offset="1" stop-color="#FEEBFF"/></linearGradient><filter id="wb" x="2" y="2" width="80" height="80" filterUnits="userSpaceOnUse" color-interpolation-filters="sRGB"><feFlood flood-opacity="0" result="BackgroundImageFix"/><feGaussianBlur in="BackgroundImageFix" stdDeviation="4"/><feComposite in2="SourceAlpha" operator="in" result="effect1_backgroundBlur_1_829"/><feBlend in="SourceGraphic" in2="effect1_backgroundBlur_1_829" result="shape"/></filter></defs></svg><svg fill="none" viewBox="0 0 74 74" id="values-icon-4" xmlns="http://www.w3.org/2000/svg"><rect width="64" height="64" rx="15" transform="matrix(1 0 0 -1 0 64)" fill="url(#xa)"/><g filter="url(#xb)"><rect width="64" height="64" rx="15" transform="matrix(1 0 0 -1 10 74)" fill="#EEE" fill-opacity=".61"/><rect x=".5" y="-.5" width="63" height="63" rx="14.5" transform="matrix(1 0 0 -1 10 73)" stroke="#fff"/></g><path d="M52.547 57c1.596 0 2.76-1.525 2.38-3.102C53.56 48.218 48.515 44 42.5 44c-6.014 0-11.063 4.218-12.428 9.901-.379 1.577.785 3.099 2.38 3.099h20.095ZM49 34a6 6 0 1 1-12 0 6 6 0 0 1 12 0Z" stroke="#D78E4B" stroke-width="2" stroke-miterlimit="10"/><defs><linearGradient id="xa" x1="32" y1="0" x2="32" y2="64" gradientUnits="userSpaceOnUse"><stop stop-color="#FFAC60"/><stop offset="1" stop-color="#FFE3C1" stop-opacity=".34"/></linearGradient><filter id="xb" x="2" y="2" width="80" height="80" filterUnits="userSpaceOnUse" color-interpolation-filters="sRGB"><feFlood flood-opacity="0" result="BackgroundImageFix"/><feGaussianBlur in="BackgroundImageFix" stdDeviation="4"/><feComposite in2="SourceAlpha" operator="in" result="effect1_backgroundBlur_1_838"/><feBlend in="SourceGraphic" in2="effect1_backgroundBlur_1_838" result="shape"/></filter></defs></svg><svg fill="none" viewBox="0 0 74 74" id="values-icon-5" xmlns="http://www.w3.org/2000/svg"><rect width="64" height="64" rx="15" transform="matrix(1 0 0 -1 0 64)" fill="url(#ya)"/><g filter="url(#yb)"><rect width="64" height="64" rx="15" transform="matrix(1 0 0 -1 10 74)" fill="#EEE" fill-opacity=".61"/><rect x=".5" y="-.5" width="63" height="63" rx="14.5" transform="matrix(1 0 0 -1 10 73)" stroke="#fff"/></g><path d="M45.823 34.643c.49-2.12-.804-4.242-2.892-4.74-2.088-.499-4.18.815-4.67 2.934-.492 2.12.803 4.241 2.891 4.74 2.088.499 4.18-.815 4.67-2.934ZM46.08 34.365c3.113 1.314 5.465 4.111 6.207 7.517M31.165 45.288c1.923-.966 4.255-.164 5.208 1.787.952 1.952.161 4.32-1.762 5.285-1.923.967-4.255.165-5.207-1.787-.952-1.956-.162-4.324 1.76-5.285ZM31.579 44.771a10.67 10.67 0 0 1 3.96-8.918M49.412 52.38c-1.919-.98-2.685-3.353-1.719-5.3a3.86 3.86 0 0 1 5.222-1.744c1.919.981 2.685 3.353 1.718 5.3-.97 1.947-3.308 2.73-5.221 1.744ZM48.83 52.307a10.352 10.352 0 0 1-6.783 2.527c-1.661 0-3.232-.391-4.627-1.092" stroke="#E34B4B" stroke-width="2" stroke-miterlimit="10" stroke-linecap="round"/><defs><linearGradient id="ya" x1="32" y1="0" x2="32" y2="64" gradientUnits="userSpaceOnUse"><stop stop-color="#FA5151"/><stop offset="1" stop-color="#FFCBCB" stop-opacity=".34"/></linearGradient><filter id="yb" x="2" y="2" width="80" height="80" filterUnits="userSpaceOnUse" color-interpolation-filters="sRGB"><feFlood flood-opacity="0" result="BackgroundImageFix"/><feGaussianBlur in="BackgroundImageFix" stdDeviation="4"/><feComposite in2="SourceAlpha" operator="in" result="effect1_backgroundBlur_1_844"/><feBlend in="SourceGraphic" in2="effect1_backgroundBlur_1_844" result="shape"/></filter></defs></svg><svg fill="none" viewBox="0 0 74 74" id="values-icon-6" xmlns="http://www.w3.org/2000/svg"><rect width="64" height="64" rx="15" transform="matrix(1 0 0 -1 0 64)" fill="url(#za)"/><g filter="url(#zb)"><rect width="64" height="64" rx="15" transform="matrix(1 0 0 -1 10 74)" fill="#EEE" fill-opacity=".61"/><rect x=".5" y="-.5" width="63" height="63" rx="14.5" transform="matrix(1 0 0 -1 10 73)" stroke="#fff"/></g><circle cx="42.5" cy="40.5" r="13.5" stroke="#6EB94C" stroke-width="2"/><circle cx="38.5" cy="37.5" r="1.5" fill="#6EB94C"/><circle cx="47.5" cy="37.5" r="1.5" fill="#6EB94C"/><path d="M47.74 43.66a4.831 4.831 0 0 1-5.696 3.78 4.835 4.835 0 0 1-3.785-3.809" stroke="#6EB94C" stroke-width="2" stroke-linecap="round"/><defs><linearGradient id="za" x1="32" y1="0" x2="32" y2="64" gradientUnits="userSpaceOnUse"><stop stop-color="#76CD4E"/><stop offset="1" stop-color="#CAFFC9" stop-opacity=".34"/></linearGradient><filter id="zb" x="2" y="2" width="80" height="80" filterUnits="userSpaceOnUse" color-interpolation-filters="sRGB"><feFlood flood-opacity="0" result="BackgroundImageFix"/><feGaussianBlur in="BackgroundImageFix" stdDeviation="4"/><feComposite in2="SourceAlpha" operator="in" result="effect1_backgroundBlur_1_859"/><feBlend in="SourceGraphic" in2="effect1_backgroundBlur_1_859" result="shape"/></filter></defs></svg></svg>