<svg width="29" height="28" viewBox="0 0 29 28" fill="none" xmlns="http://www.w3.org/2000/svg">
<path d="M0.153656 6.8978C0.163513 6.95312 0.171492 7.00843 0.174778 7.06421C0.216552 7.78008 0.757742 13.4919 7.56181 20.4464C7.56181 20.4464 13.4393 26.4361 19.6252 27.6955C19.652 27.701 19.6783 27.707 19.705 27.7144C20.0796 27.8162 23.2638 28.6211 24.9053 26.975L27.2437 24.6785C27.2648 24.6577 27.2869 24.6375 27.3094 24.6181C27.5427 24.4176 29.1667 22.9172 27.5422 21.3218C25.898 19.707 23.8252 17.7382 23.5905 17.5151C23.5793 17.5045 23.5685 17.4939 23.5577 17.4829C23.4305 17.3529 22.2223 16.1839 20.8071 17.2519C20.7663 17.2828 20.7278 17.3174 20.6912 17.3533L18.4016 19.6079C17.8886 20.0942 17.0737 20.0878 16.5682 19.5936L8.74605 11.9412C8.22082 11.4272 8.23443 10.5878 8.77609 10.0904L10.6067 8.41068C10.6067 8.41068 12.6123 6.58711 10.4583 4.61742L7.26094 1.47735C7.24123 1.45799 7.22246 1.43817 7.20368 1.41743C6.99716 1.18879 5.46464 -0.376636 3.66646 1.3658C3.61155 1.41881 3.55194 1.46675 3.48857 1.50916C2.87838 1.92034 -0.328393 4.21777 0.153656 6.8978Z" fill="white"/>
</svg>
