<svg width="268" height="39" viewBox="0 0 268 39" fill="none" xmlns="http://www.w3.org/2000/svg">
<path d="M68.05 30.5V13.16H61.33V9.35H79.45V13.16H72.73V30.5H68.05ZM86.9748 30.83C84.3348 30.83 82.2748 30.12 80.7948 28.7C79.3148 27.28 78.5748 25.35 78.5748 22.91C78.5748 21.33 78.8848 19.95 79.5048 18.77C80.1448 17.59 81.0248 16.67 82.1448 16.01C83.2848 15.33 84.6148 14.99 86.1348 14.99C87.6348 14.99 88.8848 15.31 89.8848 15.95C90.9048 16.59 91.6648 17.49 92.1648 18.65C92.6848 19.79 92.9448 21.12 92.9448 22.64V23.69H82.2948V21.44H89.6448L89.1348 21.86C89.1348 20.6 88.8748 19.65 88.3548 19.01C87.8548 18.35 87.1248 18.02 86.1648 18.02C85.1048 18.02 84.2848 18.41 83.7048 19.19C83.1448 19.97 82.8648 21.09 82.8648 22.55V23.03C82.8648 24.51 83.2248 25.61 83.9448 26.33C84.6848 27.05 85.7448 27.41 87.1248 27.41C87.9448 27.41 88.7148 27.31 89.4348 27.11C90.1748 26.89 90.8748 26.55 91.5348 26.09L92.7948 29.09C92.0348 29.65 91.1548 30.08 90.1548 30.38C89.1748 30.68 88.1148 30.83 86.9748 30.83ZM103.139 30.83C101.519 30.83 100.099 30.51 98.879 29.87C97.659 29.23 96.719 28.31 96.059 27.11C95.399 25.91 95.069 24.49 95.069 22.85C95.069 21.19 95.399 19.78 96.059 18.62C96.739 17.44 97.679 16.54 98.879 15.92C100.099 15.3 101.519 14.99 103.139 14.99C104.159 14.99 105.149 15.14 106.109 15.44C107.089 15.74 107.889 16.16 108.509 16.7L107.189 19.82C106.689 19.36 106.109 19.02 105.449 18.8C104.809 18.56 104.189 18.44 103.589 18.44C102.369 18.44 101.419 18.82 100.739 19.58C100.059 20.34 99.719 21.44 99.719 22.88C99.719 24.32 100.059 25.42 100.739 26.18C101.419 26.94 102.369 27.32 103.589 27.32C104.169 27.32 104.779 27.21 105.419 26.99C106.079 26.77 106.669 26.44 107.189 26L108.509 29.09C107.869 29.63 107.059 30.06 106.079 30.38C105.119 30.68 104.139 30.83 103.139 30.83ZM111.083 30.5V8.42H115.613V18.14H115.163C115.643 17.12 116.353 16.34 117.293 15.8C118.233 15.26 119.313 14.99 120.533 14.99C122.313 14.99 123.643 15.51 124.523 16.55C125.403 17.57 125.843 19.14 125.843 21.26V30.5H121.313V21.47C121.313 20.41 121.113 19.65 120.713 19.19C120.333 18.73 119.733 18.5 118.913 18.5C117.913 18.5 117.113 18.81 116.513 19.43C115.913 20.05 115.613 20.88 115.613 21.92V30.5H111.083ZM129.481 30.5V19.25C129.481 18.61 129.461 17.96 129.421 17.3C129.381 16.62 129.321 15.95 129.241 15.29H133.591L133.921 18.11H133.561C134.061 17.11 134.771 16.34 135.691 15.8C136.611 15.26 137.681 14.99 138.901 14.99C140.681 14.99 142.011 15.51 142.891 16.55C143.791 17.57 144.241 19.16 144.241 21.32V30.5H139.711V21.53C139.711 20.43 139.511 19.65 139.111 19.19C138.711 18.73 138.111 18.5 137.311 18.5C136.311 18.5 135.511 18.82 134.911 19.46C134.311 20.08 134.011 20.92 134.011 21.98V30.5H129.481ZM155.08 30.83C153.46 30.83 152.05 30.51 150.85 29.87C149.67 29.21 148.75 28.29 148.09 27.11C147.45 25.93 147.13 24.52 147.13 22.88C147.13 21.26 147.45 19.86 148.09 18.68C148.75 17.5 149.67 16.59 150.85 15.95C152.05 15.31 153.46 14.99 155.08 14.99C156.7 14.99 158.11 15.31 159.31 15.95C160.51 16.59 161.43 17.5 162.07 18.68C162.73 19.86 163.06 21.26 163.06 22.88C163.06 24.52 162.73 25.93 162.07 27.11C161.43 28.29 160.51 29.21 159.31 29.87C158.11 30.51 156.7 30.83 155.08 30.83ZM155.08 27.41C156.12 27.41 156.94 27.04 157.54 26.3C158.16 25.56 158.47 24.42 158.47 22.88C158.47 21.34 158.16 20.21 157.54 19.49C156.94 18.77 156.12 18.41 155.08 18.41C154.04 18.41 153.21 18.77 152.59 19.49C151.99 20.21 151.69 21.34 151.69 22.88C151.69 24.42 151.99 25.56 152.59 26.3C153.21 27.04 154.04 27.41 155.08 27.41ZM165.985 30.5V8.42H170.515V30.5H165.985ZM181.417 30.83C179.797 30.83 178.387 30.51 177.187 29.87C176.007 29.21 175.087 28.29 174.427 27.11C173.787 25.93 173.467 24.52 173.467 22.88C173.467 21.26 173.787 19.86 174.427 18.68C175.087 17.5 176.007 16.59 177.187 15.95C178.387 15.31 179.797 14.99 181.417 14.99C183.037 14.99 184.447 15.31 185.647 15.95C186.847 16.59 187.767 17.5 188.407 18.68C189.067 19.86 189.397 21.26 189.397 22.88C189.397 24.52 189.067 25.93 188.407 27.11C187.767 28.29 186.847 29.21 185.647 29.87C184.447 30.51 183.037 30.83 181.417 30.83ZM181.417 27.41C182.457 27.41 183.277 27.04 183.877 26.3C184.497 25.56 184.807 24.42 184.807 22.88C184.807 21.34 184.497 20.21 183.877 19.49C183.277 18.77 182.457 18.41 181.417 18.41C180.377 18.41 179.547 18.77 178.927 19.49C178.327 20.21 178.027 21.34 178.027 22.88C178.027 24.42 178.327 25.56 178.927 26.3C179.547 27.04 180.377 27.41 181.417 27.41ZM199.553 37.22C198.093 37.22 196.793 37.07 195.653 36.77C194.513 36.49 193.493 36.06 192.593 35.48L193.463 32.24C194.023 32.6 194.613 32.89 195.233 33.11C195.873 33.35 196.523 33.52 197.183 33.62C197.863 33.74 198.533 33.8 199.193 33.8C200.533 33.8 201.533 33.48 202.193 32.84C202.853 32.2 203.183 31.29 203.183 30.11V26.96H203.483C203.163 27.92 202.523 28.69 201.563 29.27C200.603 29.85 199.523 30.14 198.323 30.14C196.963 30.14 195.773 29.83 194.753 29.21C193.753 28.59 192.973 27.71 192.413 26.57C191.853 25.43 191.573 24.09 191.573 22.55C191.573 21.01 191.853 19.67 192.413 18.53C192.973 17.39 193.753 16.52 194.753 15.92C195.773 15.3 196.963 14.99 198.323 14.99C199.543 14.99 200.613 15.28 201.533 15.86C202.473 16.42 203.103 17.17 203.423 18.11L203.183 17.99L203.483 15.29H207.863C207.783 15.95 207.723 16.62 207.683 17.3C207.643 17.96 207.623 18.61 207.623 19.25V29.6C207.623 32.06 206.933 33.94 205.553 35.24C204.173 36.56 202.173 37.22 199.553 37.22ZM199.673 26.72C200.733 26.72 201.573 26.36 202.193 25.64C202.813 24.92 203.123 23.89 203.123 22.55C203.123 21.21 202.813 20.19 202.193 19.49C201.573 18.77 200.733 18.41 199.673 18.41C198.573 18.41 197.703 18.77 197.063 19.49C196.443 20.19 196.133 21.21 196.133 22.55C196.133 23.89 196.443 24.92 197.063 25.64C197.703 26.36 198.573 26.72 199.673 26.72ZM211.157 37.31L210.107 33.77C211.047 33.59 211.837 33.38 212.477 33.14C213.137 32.9 213.677 32.58 214.097 32.18C214.517 31.8 214.857 31.3 215.117 30.68L215.867 28.91L215.747 30.65L209.147 15.29H213.917L218.267 26.3H217.337L221.747 15.29H226.247L219.377 31.1C218.877 32.24 218.337 33.18 217.757 33.92C217.197 34.68 216.587 35.28 215.927 35.72C215.267 36.16 214.537 36.5 213.737 36.74C212.957 36.98 212.097 37.17 211.157 37.31ZM234.77 30.83C233.15 30.83 231.73 30.51 230.51 29.87C229.29 29.23 228.35 28.31 227.69 27.11C227.03 25.91 226.7 24.49 226.7 22.85C226.7 21.19 227.03 19.78 227.69 18.62C228.37 17.44 229.31 16.54 230.51 15.92C231.73 15.3 233.15 14.99 234.77 14.99C235.79 14.99 236.78 15.14 237.74 15.44C238.72 15.74 239.52 16.16 240.14 16.7L238.82 19.82C238.32 19.36 237.74 19.02 237.08 18.8C236.44 18.56 235.82 18.44 235.22 18.44C234 18.44 233.05 18.82 232.37 19.58C231.69 20.34 231.35 21.44 231.35 22.88C231.35 24.32 231.69 25.42 232.37 26.18C233.05 26.94 234 27.32 235.22 27.32C235.8 27.32 236.41 27.21 237.05 26.99C237.71 26.77 238.3 26.44 238.82 26L240.14 29.09C239.5 29.63 238.69 30.06 237.71 30.38C236.75 30.68 235.77 30.83 234.77 30.83ZM248.565 30.83C247.245 30.83 246.085 30.51 245.085 29.87C244.085 29.23 243.305 28.32 242.745 27.14C242.185 25.96 241.905 24.54 241.905 22.88C241.905 21.24 242.185 19.83 242.745 18.65C243.305 17.47 244.085 16.57 245.085 15.95C246.085 15.31 247.245 14.99 248.565 14.99C249.785 14.99 250.875 15.29 251.835 15.89C252.815 16.47 253.455 17.26 253.755 18.26H253.425L253.785 15.29H258.135C258.075 15.95 258.015 16.62 257.955 17.3C257.915 17.96 257.895 18.61 257.895 19.25V30.5H253.395L253.365 27.65H253.725C253.405 28.61 252.765 29.38 251.805 29.96C250.845 30.54 249.765 30.83 248.565 30.83ZM249.945 27.41C250.985 27.41 251.825 27.04 252.465 26.3C253.105 25.56 253.425 24.42 253.425 22.88C253.425 21.34 253.105 20.21 252.465 19.49C251.825 18.77 250.985 18.41 249.945 18.41C248.905 18.41 248.065 18.77 247.425 19.49C246.785 20.21 246.465 21.34 246.465 22.88C246.465 24.42 246.775 25.56 247.395 26.3C248.035 27.04 248.885 27.41 249.945 27.41ZM261.61 30.5V8.42H266.14V30.5H261.61Z" fill="#2F2F2F"/>
<circle cx="13" cy="18.5" r="13" fill="#5956E9"/>
<circle cx="26" cy="18.5" r="13" fill="#38D4FF" style="mix-blend-mode:multiply"/>
<circle cx="40" cy="18.5" r="13" fill="#E541ED" style="mix-blend-mode:multiply"/>
</svg>
