<svg width="53" height="27" viewBox="0 0 53 27" fill="none" xmlns="http://www.w3.org/2000/svg">
<path d="M26 13.5C26 20.6797 20.1797 26.5 13 26.5C5.8203 26.5 0 20.6797 0 13.5C0 6.3203 5.8203 0.5 13 0.5C20.1797 0.5 26 6.3203 26 13.5Z" fill="#5956E9"/>
<path d="M39 13.5C39 20.6797 33.1797 26.5 26 26.5C18.8203 26.5 13 20.6797 13 13.5C13 6.3203 18.8203 0.5 26 0.5C33.1797 0.5 39 6.3203 39 13.5Z" fill="#38D4FF" style="mix-blend-mode:multiply"/>
<path d="M53 13.5C53 20.6797 47.1797 26.5 40 26.5C32.8203 26.5 27 20.6797 27 13.5C27 6.3203 32.8203 0.5 40 0.5C47.1797 0.5 53 6.3203 53 13.5Z" fill="#E541ED" style="mix-blend-mode:multiply"/>
</svg>
