<svg width="23" height="23" viewBox="0 0 23 23" fill="none" xmlns="http://www.w3.org/2000/svg">
<path fill-rule="evenodd" clip-rule="evenodd" d="M11.6199 4.84471L10.6033 7.97339C10.2017 9.20946 9.04983 10.0463 7.75015 10.0463H4.46046L7.12187 11.98C8.17333 12.7439 8.61331 14.098 8.21169 15.3341L7.19512 18.4627L9.85653 16.5291C10.908 15.7652 12.3318 15.7652 13.3832 16.5291L16.0447 18.4627L15.0281 15.3341C14.6265 14.098 15.0664 12.7439 16.1179 11.98L18.7793 10.0463H15.4896C14.1899 10.0463 13.0381 9.20946 12.6365 7.97339L11.6199 4.84471ZM12.5709 1.29963C12.2716 0.378316 10.9682 0.378314 10.6688 1.29962L8.7012 7.35535C8.56733 7.76738 8.18337 8.04634 7.75015 8.04634H1.38278C0.414054 8.04634 0.011277 9.28595 0.794991 9.85535L5.9463 13.598C6.29679 13.8526 6.44345 14.304 6.30957 14.716L4.34195 20.7718C4.0426 21.6931 5.09707 22.4592 5.88079 21.8898L11.0321 18.1472C11.3826 17.8925 11.8572 17.8925 12.2077 18.1472L17.359 21.8898C18.1427 22.4592 19.1972 21.6931 18.8978 20.7718L16.9302 14.716C16.7963 14.304 16.943 13.8526 17.2935 13.598L22.4448 9.85535C23.2285 9.28595 22.8257 8.04634 21.857 8.04634H15.4896C15.0564 8.04634 14.6724 7.76738 14.5386 7.35535L12.5709 1.29963Z" fill="#FFA722"/>
</svg>
