<svg width="23" height="23" viewBox="0 0 23 23" fill="none" xmlns="http://www.w3.org/2000/svg">
<path d="M10.6688 1.29962C10.9682 0.378314 12.2716 0.378316 12.5709 1.29963L14.5386 7.35535C14.6724 7.76738 15.0564 8.04634 15.4896 8.04634H21.857C22.8257 8.04634 23.2285 9.28595 22.4448 9.85535L17.2935 13.598C16.943 13.8526 16.7963 14.304 16.9302 14.716L18.8978 20.7718C19.1972 21.6931 18.1427 22.4592 17.359 21.8898L12.2077 18.1472C11.8572 17.8925 11.3826 17.8925 11.0321 18.1472L5.88079 21.8898C5.09707 22.4592 4.0426 21.6931 4.34195 20.7718L6.30957 14.716C6.44345 14.304 6.29679 13.8526 5.9463 13.598L0.794991 9.85535C0.011277 9.28595 0.414054 8.04634 1.38278 8.04634H7.75015C8.18337 8.04634 8.56733 7.76738 8.7012 7.35535L10.6688 1.29962Z" fill="#FFA722"/>
</svg>
