<?xml version="1.0" standalone="no"?>
<!DOCTYPE svg PUBLIC "-//W3C//DTD SVG 20010904//EN"
 "http://www.w3.org/TR/2001/REC-SVG-20010904/DTD/svg10.dtd">
<svg version="1.0" xmlns="http://www.w3.org/2000/svg"
 width="1696.000000pt" height="1696.000000pt" viewBox="0 0 1696.000000 1696.000000"
 preserveAspectRatio="xMidYMid meet">
<metadata>
Created by potrace 1.14, written by Peter Selinger 2001-2017
</metadata>
<g transform="translate(0.000000,1696.000000) scale(0.100000,-0.100000)"
fill="#000000" stroke="none">
<path d="M8287 12644 c-2 -3 -63 -7 -133 -9 -71 -2 -158 -7 -194 -11 -36 -3
-78 -7 -95 -9 -68 -6 -146 -17 -250 -36 -60 -11 -123 -22 -140 -25 -16 -3 -48
-10 -70 -16 -22 -5 -49 -12 -60 -14 -47 -9 -61 -13 -87 -23 -16 -6 -28 -9 -28
-6 0 2 -33 -7 -72 -21 -40 -13 -74 -24 -76 -24 -5 2 -117 -35 -122 -40 -3 -3
-16 -7 -30 -8 -14 -2 -29 -7 -35 -11 -5 -4 -32 -16 -60 -26 -139 -50 -466
-200 -473 -217 -2 -4 -10 -8 -17 -8 -8 0 -20 -7 -29 -15 -8 -9 -17 -15 -18
-14 -2 0 -16 -5 -31 -12 -26 -12 -35 -10 -95 21 -37 19 -69 37 -72 40 -3 3
-32 19 -65 35 -33 15 -95 45 -138 66 -42 21 -80 38 -82 38 -3 0 -27 10 -53 21
-26 12 -56 23 -66 26 -11 2 -24 8 -30 14 -5 5 -16 10 -22 10 -7 0 -25 5 -41
12 -15 6 -30 12 -33 13 -3 1 -12 5 -20 8 -8 3 -60 20 -115 37 -55 18 -116 36
-135 43 -19 6 -42 11 -50 12 -8 1 -22 5 -30 8 -8 4 -26 9 -40 11 -14 3 -50 11
-80 19 -30 8 -71 17 -90 20 -19 3 -56 10 -82 16 -26 6 -68 13 -95 17 -26 3
-59 8 -73 10 -34 6 -87 12 -132 15 -21 2 -38 5 -38 8 0 14 -611 21 -758 8
-141 -11 -237 -22 -237 -27 0 -1 -16 -3 -35 -4 -35 -3 -131 -20 -235 -41 -11
-2 -31 -6 -45 -9 -14 -2 -54 -12 -90 -21 -36 -9 -76 -19 -90 -21 -14 -3 -34
-8 -45 -11 -11 -4 -22 -8 -25 -8 -3 -1 -25 -7 -50 -15 -25 -7 -49 -14 -55 -16
-5 -1 -44 -14 -85 -29 -41 -14 -86 -29 -100 -31 -14 -3 -26 -9 -28 -15 -2 -5
-11 -9 -19 -9 -37 0 -437 -183 -563 -258 -19 -12 -54 -31 -77 -43 -24 -13 -43
-26 -43 -31 0 -4 -6 -8 -12 -8 -12 -1 -162 -95 -213 -134 -11 -8 -58 -43 -105
-77 -47 -34 -86 -66 -88 -71 -2 -4 -8 -8 -13 -8 -6 0 -20 -10 -33 -22 -13 -13
-40 -36 -62 -53 -169 -132 -488 -468 -645 -680 -52 -71 -60 -81 -76 -100 -7
-7 -13 -17 -13 -20 0 -4 -8 -17 -17 -30 -34 -44 -102 -148 -122 -188 -8 -15
-18 -27 -23 -27 -4 0 -8 -4 -8 -10 0 -5 -13 -32 -30 -60 -16 -27 -27 -50 -24
-50 3 0 -2 -7 -10 -16 -9 -8 -16 -21 -16 -29 0 -7 -3 -15 -8 -17 -4 -1 -27
-43 -51 -93 -24 -49 -54 -111 -67 -137 -13 -27 -20 -48 -16 -48 4 0 2 -4 -3
-8 -6 -4 -28 -52 -49 -107 -21 -55 -45 -113 -52 -129 -8 -16 -14 -35 -14 -43
0 -7 -4 -21 -10 -31 -16 -29 -97 -300 -116 -387 -6 -30 -13 -62 -20 -87 -3
-13 -7 -32 -8 -43 -2 -11 -11 -60 -21 -110 -20 -109 -21 -114 -30 -190 -3 -33
-8 -71 -10 -85 -19 -127 -27 -619 -12 -790 12 -130 23 -228 31 -270 2 -14 7
-43 10 -65 3 -22 10 -65 16 -95 7 -30 14 -71 17 -90 3 -19 13 -66 23 -105 10
-38 21 -81 24 -95 8 -42 76 -264 86 -282 6 -10 10 -25 10 -33 0 -8 4 -23 9
-33 5 -9 28 -66 51 -127 40 -103 68 -168 135 -309 43 -91 166 -311 176 -314 5
-2 9 -8 9 -13 0 -5 26 -49 57 -97 32 -48 60 -91 62 -97 2 -5 8 -14 13 -20 4
-5 45 -59 90 -120 45 -60 90 -117 100 -126 10 -9 18 -20 18 -23 0 -4 6 -13 12
-20 7 -7 40 -44 73 -81 61 -71 284 -296 346 -350 228 -200 454 -365 662 -486
33 -19 73 -42 90 -53 36 -21 264 -136 317 -159 19 -9 61 -27 93 -41 32 -14 61
-26 66 -26 5 0 30 -10 57 -22 27 -12 52 -23 57 -24 4 -1 9 -3 12 -4 3 -1 10
-4 15 -5 6 -1 12 -4 15 -5 3 -1 8 -3 13 -4 4 -1 21 -6 37 -13 68 -26 265 -85
298 -88 9 -2 18 -3 20 -5 2 -2 17 -6 56 -14 13 -3 38 -10 55 -15 17 -5 49 -12
71 -15 22 -3 50 -8 63 -11 54 -13 65 -14 186 -30 15 -3 35 -6 45 -9 9 -3 50
-8 91 -11 41 -3 91 -7 110 -10 19 -3 101 -7 182 -10 82 -3 151 -6 155 -6 5 -1
10 -1 13 0 18 7 150 4 150 -2 0 -5 6 -5 13 0 6 4 23 8 37 9 60 3 228 15 260
19 19 2 55 6 80 9 25 2 52 7 60 10 8 2 35 7 60 10 25 3 54 7 65 9 36 8 100 20
120 23 11 1 30 5 43 8 12 4 30 8 40 10 9 3 46 12 82 21 36 9 76 18 89 21 13 3
34 10 45 16 12 6 23 11 26 10 10 -3 89 21 210 64 69 25 130 46 136 47 7 2 19
9 28 16 9 7 16 11 16 8 0 -6 48 13 160 65 117 54 155 73 158 81 2 4 10 7 17 7
7 0 49 20 93 45 44 25 85 45 92 45 11 0 89 -39 100 -50 10 -10 136 -70 148
-70 7 0 12 -3 12 -8 0 -4 12 -13 28 -19 120 -54 223 -97 252 -108 19 -7 49
-19 65 -26 17 -6 35 -13 40 -14 6 -2 40 -14 78 -28 37 -15 67 -23 67 -20 0 4
5 2 12 -5 7 -7 22 -12 33 -12 12 0 25 -3 29 -7 3 -4 12 -8 19 -9 7 -1 55 -14
107 -29 111 -30 97 -27 225 -54 122 -25 235 -44 325 -56 179 -23 286 -29 540
-29 255 0 444 10 550 30 14 3 39 6 55 8 26 3 121 18 135 21 20 5 79 17 100 19
14 2 32 6 40 9 19 7 119 30 145 33 11 1 21 3 23 4 1 2 5 3 10 4 4 2 27 9 52
16 25 7 47 14 50 15 3 1 25 7 50 14 52 14 211 68 255 86 17 7 77 32 135 56 58
24 108 43 113 41 4 -1 7 2 7 8 0 5 5 10 11 10 12 0 238 112 299 148 19 11 53
30 75 42 22 12 42 25 45 29 3 3 24 16 47 29 40 21 44 22 72 8 16 -9 33 -20 36
-26 4 -6 11 -8 16 -5 5 4 9 1 9 -4 0 -6 7 -11 15 -11 8 0 15 -4 15 -9 0 -5 8
-11 18 -14 9 -3 46 -22 82 -43 98 -55 224 -118 233 -116 4 1 7 -2 7 -8 0 -5 4
-10 10 -10 5 0 33 -11 62 -24 46 -21 118 -51 193 -81 11 -4 26 -9 34 -11 7 -1
18 -7 24 -13 6 -6 19 -11 29 -11 9 0 32 -7 50 -15 51 -22 270 -89 360 -110
102 -23 311 -66 348 -71 25 -3 53 -8 64 -10 16 -3 78 -11 161 -20 116 -13 231
-18 440 -18 290 -1 405 7 610 39 11 1 43 6 70 10 52 7 240 46 340 69 74 18
338 99 345 106 3 3 14 6 25 8 11 1 29 7 40 12 11 5 76 31 145 59 69 27 143 58
165 69 22 11 65 31 96 46 30 14 59 29 63 33 4 5 11 8 14 8 7 1 104 51 134 70
9 5 37 21 62 34 25 14 46 28 46 33 0 4 5 8 10 8 10 0 139 77 150 90 12 13 70
50 79 50 5 0 11 3 13 8 2 4 30 27 63 51 54 40 183 141 211 166 7 6 43 37 80
70 120 104 336 326 424 434 19 24 40 48 45 55 25 27 145 184 145 190 0 3 9 16
20 29 41 46 48 55 44 60 -2 2 5 12 16 22 11 10 20 22 20 26 0 4 21 38 46 75
25 36 48 74 52 82 3 9 23 45 44 80 51 82 181 341 185 367 2 10 7 22 11 25 4 3
22 43 40 90 19 47 40 99 47 115 24 55 112 336 131 415 2 8 12 51 23 95 19 78
32 147 34 173 0 6 3 12 6 12 3 0 7 12 8 28 1 31 8 74 16 117 4 17 9 57 13 90
3 33 8 68 10 77 18 97 26 620 11 778 -14 157 -24 246 -31 280 -4 24 -9 53 -21
138 -3 20 -8 44 -11 52 -3 8 -8 35 -11 60 -3 25 -10 51 -16 58 -5 7 -7 15 -4
18 3 3 -3 34 -13 70 -10 35 -18 65 -18 67 1 3 -3 17 -42 147 -32 107 -42 140
-56 175 -4 11 -8 22 -9 25 -3 9 -17 45 -53 135 -34 87 -69 166 -127 289 -43
91 -166 311 -176 314 -5 2 -9 8 -9 13 0 13 -150 243 -162 247 -4 2 -8 8 -8 13
0 8 -94 134 -110 149 -3 3 -19 23 -35 45 -16 22 -36 47 -45 56 -8 8 -35 39
-60 69 -63 75 -290 303 -379 380 -41 36 -82 72 -91 80 -37 33 -61 50 -70 50
-6 0 -10 4 -10 8 0 14 -224 174 -380 272 -92 58 -281 164 -345 194 -22 10 -74
35 -115 56 -41 20 -78 37 -83 38 -4 1 -24 9 -45 18 -20 9 -54 22 -75 30 -20 7
-52 20 -70 27 -39 18 -154 58 -176 62 -9 2 -17 4 -18 5 -2 2 -6 3 -10 4 -5 1
-39 12 -78 24 -106 32 -295 80 -340 86 -22 3 -58 10 -81 15 -22 6 -60 13 -83
16 -45 5 -88 12 -131 20 -14 3 -56 7 -95 10 -38 3 -83 7 -100 10 -27 3 -356
18 -380 17 -5 -1 -68 -3 -140 -6 -71 -3 -159 -8 -195 -12 -36 -3 -78 -7 -95
-9 -50 -4 -139 -15 -165 -21 -63 -12 -76 -14 -110 -19 -20 -3 -47 -8 -60 -11
-33 -7 -65 -13 -92 -18 -13 -2 -52 -12 -88 -21 -36 -9 -76 -19 -90 -21 -14 -3
-34 -8 -45 -11 -11 -4 -24 -8 -30 -9 -22 -5 -204 -64 -260 -84 -33 -12 -66
-22 -72 -23 -7 0 -13 -4 -13 -8 0 -4 -14 -11 -32 -14 -18 -4 -39 -11 -48 -16
-8 -4 -31 -15 -50 -23 -19 -8 -69 -30 -110 -49 -41 -18 -78 -35 -82 -36 -13
-3 -179 -92 -253 -135 -211 -123 -182 -115 -254 -67 -34 22 -64 41 -66 41 -2
0 -41 22 -87 48 -97 56 -376 192 -393 192 -3 0 -24 9 -48 19 -23 10 -62 27
-87 36 -25 9 -56 22 -70 28 -14 5 -34 12 -45 14 -11 1 -29 7 -40 13 -24 11
-212 68 -240 72 -11 2 -22 6 -25 9 -3 4 -21 9 -40 12 -19 3 -64 13 -100 22
-65 17 -76 19 -140 30 -19 3 -46 8 -60 12 -14 3 -28 6 -32 5 -4 -1 -33 3 -65
10 -32 6 -74 12 -93 13 -19 2 -35 4 -35 5 0 0 -25 3 -55 6 -29 2 -72 7 -95 9
-22 3 -114 7 -203 10 -90 3 -167 7 -172 10 -4 2 -10 2 -13 -1z"/>
</g>
</svg>
